<svg width="100%" height="100%" viewBox="0 0 24 24" fill="none" xmlns="http://www.w3.org/2000/svg">
<path fill-rule="evenodd" clip-rule="evenodd" d="M12 2C6.48 2 2 6.48 2 12C2 17.52 6.48 22 12 22C17.52 22 22 17.52 22 12C22 6.48 17.52 2 12 2ZM12 20C7.59 20 4 16.41 4 12C4 7.59 7.59 4 12 4C16.41 4 20 7.59 20 12C20 16.41 16.41 20 12 20ZM16.3 16.3C15.91 16.69 15.28 16.69 14.89 16.3L12 13.41L9.10997 16.3C8.71997 16.69 8.08997 16.69 7.69997 16.3C7.30997 15.91 7.30997 15.28 7.69997 14.89L10.59 12L7.69997 9.10997C7.30997 8.71997 7.30997 8.08997 7.69997 7.69997C8.08997 7.30997 8.71997 7.30997 9.10997 7.69997L12 10.59L14.89 7.69997C15.28 7.30997 15.91 7.30997 16.3 7.69997C16.69 8.08997 16.69 8.71997 16.3 9.10997L13.41 12L16.3 14.89C16.68 15.27 16.68 15.91 16.3 16.3Z" fill="white"/>
</svg>
